<svg xmlns="http://www.w3.org/2000/svg" width="1200" height="430" viewBox="0 0 1200 430">
<rect width="100%" height="100%" fill="white"/>
<text x="600" y="25" text-anchor="middle" font-family="Arial" font-size="18" font-weight="bold">External benchmark pack probes: open=no truncation, diamond=partial, square=full truncation</text>
<text x="222.5" y="43" text-anchor="middle" font-family="Arial" font-size="15" font-weight="bold">GSM8K-pack</text>
<rect x="55" y="55" width="335" height="270" fill="none" stroke="#444"/>
<line x1="55" y1="325.0" x2="390" y2="325.0" stroke="#ddd"/>
<text x="47" y="329.0" text-anchor="end" font-family="Arial" font-size="11">0</text>
<line x1="55" y1="257.5" x2="390" y2="257.5" stroke="#ddd"/>
<text x="47" y="261.5" text-anchor="end" font-family="Arial" font-size="11">0.25</text>
<line x1="55" y1="190.0" x2="390" y2="190.0" stroke="#ddd"/>
<text x="47" y="194.0" text-anchor="end" font-family="Arial" font-size="11">0.5</text>
<line x1="55" y1="122.5" x2="390" y2="122.5" stroke="#ddd"/>
<text x="47" y="126.5" text-anchor="end" font-family="Arial" font-size="11">0.75</text>
<line x1="55" y1="55.0" x2="390" y2="55.0" stroke="#ddd"/>
<text x="47" y="59.0" text-anchor="end" font-family="Arial" font-size="11">1</text>
<line x1="55.0" y1="55" x2="55.0" y2="325" stroke="#eee"/>
<text x="55.0" y="343" text-anchor="middle" font-family="Arial" font-size="11">0</text>
<line x1="138.8" y1="55" x2="138.8" y2="325" stroke="#eee"/>
<text x="138.8" y="343" text-anchor="middle" font-family="Arial" font-size="11">25</text>
<line x1="222.5" y1="55" x2="222.5" y2="325" stroke="#eee"/>
<text x="222.5" y="343" text-anchor="middle" font-family="Arial" font-size="11">50</text>
<line x1="306.2" y1="55" x2="306.2" y2="325" stroke="#eee"/>
<text x="306.2" y="343" text-anchor="middle" font-family="Arial" font-size="11">75</text>
<line x1="356.5" y1="55" x2="356.5" y2="325" stroke="#eee"/>
<text x="356.5" y="343" text-anchor="middle" font-family="Arial" font-size="11">90</text>
<polyline points="55.0,206.2 138.8,208.9 222.5,211.6 306.2,217.0 356.5,292.6" fill="none" stroke="#2563eb" stroke-width="2" opacity="0.75"/>
<circle cx="55.0" cy="206.2" r="5" fill="white" stroke="#2563eb" stroke-width="2"/>
<circle cx="138.8" cy="208.9" r="5" fill="white" stroke="#2563eb" stroke-width="2"/>
<circle cx="222.5" cy="211.6" r="5" fill="white" stroke="#2563eb" stroke-width="2"/>
<circle cx="306.2" cy="217.0" r="5" fill="white" stroke="#2563eb" stroke-width="2"/>
<rect x="351.5" y="287.6" width="10" height="10" fill="#2563eb" stroke="#2563eb"/>
<polyline points="55.0,163.0 138.8,217.0 222.5,222.4 306.2,222.4 356.5,281.8" fill="none" stroke="#9333ea" stroke-width="2" opacity="0.75"/>
<circle cx="55.0" cy="163.0" r="5" fill="white" stroke="#9333ea" stroke-width="2"/>
<circle cx="138.8" cy="217.0" r="5" fill="white" stroke="#9333ea" stroke-width="2"/>
<circle cx="222.5" cy="222.4" r="5" fill="white" stroke="#9333ea" stroke-width="2"/>
<circle cx="306.2" cy="222.4" r="5" fill="white" stroke="#9333ea" stroke-width="2"/>
<rect x="351.5" y="276.8" width="10" height="10" fill="#9333ea" stroke="#9333ea"/>
<polyline points="55.0,184.6 138.8,190.0 222.5,184.6 306.2,181.9 356.5,284.5" fill="none" stroke="#16a34a" stroke-width="2" opacity="0.75"/>
<circle cx="55.0" cy="184.6" r="5" fill="white" stroke="#16a34a" stroke-width="2"/>
<circle cx="138.8" cy="190.0" r="5" fill="white" stroke="#16a34a" stroke-width="2"/>
<circle cx="222.5" cy="184.6" r="5" fill="white" stroke="#16a34a" stroke-width="2"/>
<circle cx="306.2" cy="181.9" r="5" fill="white" stroke="#16a34a" stroke-width="2"/>
<rect x="351.5" y="279.5" width="10" height="10" fill="#16a34a" stroke="#16a34a"/>
<text x="592.5" y="43" text-anchor="middle" font-family="Arial" font-size="15" font-weight="bold">MMLU-Pro-pack</text>
<rect x="425" y="55" width="335" height="270" fill="none" stroke="#444"/>
<line x1="425" y1="325.0" x2="760" y2="325.0" stroke="#ddd"/>
<line x1="425" y1="257.5" x2="760" y2="257.5" stroke="#ddd"/>
<line x1="425" y1="190.0" x2="760" y2="190.0" stroke="#ddd"/>
<line x1="425" y1="122.5" x2="760" y2="122.5" stroke="#ddd"/>
<line x1="425" y1="55.0" x2="760" y2="55.0" stroke="#ddd"/>
<line x1="425.0" y1="55" x2="425.0" y2="325" stroke="#eee"/>
<text x="425.0" y="343" text-anchor="middle" font-family="Arial" font-size="11">0</text>
<line x1="508.8" y1="55" x2="508.8" y2="325" stroke="#eee"/>
<text x="508.8" y="343" text-anchor="middle" font-family="Arial" font-size="11">25</text>
<line x1="592.5" y1="55" x2="592.5" y2="325" stroke="#eee"/>
<text x="592.5" y="343" text-anchor="middle" font-family="Arial" font-size="11">50</text>
<line x1="676.2" y1="55" x2="676.2" y2="325" stroke="#eee"/>
<text x="676.2" y="343" text-anchor="middle" font-family="Arial" font-size="11">75</text>
<line x1="726.5" y1="55" x2="726.5" y2="325" stroke="#eee"/>
<text x="726.5" y="343" text-anchor="middle" font-family="Arial" font-size="11">90</text>
<polyline points="425.0,173.8 508.8,173.8 592.5,198.1 676.2,249.4 726.5,300.7" fill="none" stroke="#2563eb" stroke-width="2" opacity="0.75"/>
<circle cx="425.0" cy="173.8" r="5" fill="white" stroke="#2563eb" stroke-width="2"/>
<circle cx="508.8" cy="173.8" r="5" fill="white" stroke="#2563eb" stroke-width="2"/>
<polygon points="592.5,192.1 598.5,198.1 592.5,204.1 586.5,198.1" fill="#2563eb" stroke="#2563eb"/>
<rect x="671.2" y="244.4" width="10" height="10" fill="#2563eb" stroke="#2563eb"/>
<rect x="721.5" y="295.7" width="10" height="10" fill="#2563eb" stroke="#2563eb"/>
<polyline points="425.0,195.4 508.8,152.2 592.5,181.9 676.2,254.8 726.5,300.7" fill="none" stroke="#9333ea" stroke-width="2" opacity="0.75"/>
<circle cx="425.0" cy="195.4" r="5" fill="white" stroke="#9333ea" stroke-width="2"/>
<circle cx="508.8" cy="152.2" r="5" fill="white" stroke="#9333ea" stroke-width="2"/>
<polygon points="592.5,175.9 598.5,181.9 592.5,187.9 586.5,181.9" fill="#9333ea" stroke="#9333ea"/>
<rect x="671.2" y="249.8" width="10" height="10" fill="#9333ea" stroke="#9333ea"/>
<rect x="721.5" y="295.7" width="10" height="10" fill="#9333ea" stroke="#9333ea"/>
<polyline points="425.0,141.4 508.8,133.3 592.5,152.2 676.2,227.8 726.5,292.6" fill="none" stroke="#16a34a" stroke-width="2" opacity="0.75"/>
<circle cx="425.0" cy="141.4" r="5" fill="white" stroke="#16a34a" stroke-width="2"/>
<circle cx="508.8" cy="133.3" r="5" fill="white" stroke="#16a34a" stroke-width="2"/>
<polygon points="592.5,146.2 598.5,152.2 592.5,158.2 586.5,152.2" fill="#16a34a" stroke="#16a34a"/>
<rect x="671.2" y="222.8" width="10" height="10" fill="#16a34a" stroke="#16a34a"/>
<rect x="721.5" y="287.6" width="10" height="10" fill="#16a34a" stroke="#16a34a"/>
<text x="962.5" y="43" text-anchor="middle" font-family="Arial" font-size="15" font-weight="bold">DROP-pack</text>
<rect x="795" y="55" width="335" height="270" fill="none" stroke="#444"/>
<line x1="795" y1="325.0" x2="1130" y2="325.0" stroke="#ddd"/>
<line x1="795" y1="257.5" x2="1130" y2="257.5" stroke="#ddd"/>
<line x1="795" y1="190.0" x2="1130" y2="190.0" stroke="#ddd"/>
<line x1="795" y1="122.5" x2="1130" y2="122.5" stroke="#ddd"/>
<line x1="795" y1="55.0" x2="1130" y2="55.0" stroke="#ddd"/>
<line x1="795.0" y1="55" x2="795.0" y2="325" stroke="#eee"/>
<text x="795.0" y="343" text-anchor="middle" font-family="Arial" font-size="11">0</text>
<line x1="878.8" y1="55" x2="878.8" y2="325" stroke="#eee"/>
<text x="878.8" y="343" text-anchor="middle" font-family="Arial" font-size="11">25</text>
<line x1="962.5" y1="55" x2="962.5" y2="325" stroke="#eee"/>
<text x="962.5" y="343" text-anchor="middle" font-family="Arial" font-size="11">50</text>
<line x1="1046.2" y1="55" x2="1046.2" y2="325" stroke="#eee"/>
<text x="1046.2" y="343" text-anchor="middle" font-family="Arial" font-size="11">75</text>
<line x1="1096.5" y1="55" x2="1096.5" y2="325" stroke="#eee"/>
<text x="1096.5" y="343" text-anchor="middle" font-family="Arial" font-size="11">90</text>
<polyline points="795.0,125.2 878.8,125.2 962.5,184.6 1046.2,257.5 1096.5,308.8" fill="none" stroke="#2563eb" stroke-width="2" opacity="0.75"/>
<circle cx="795.0" cy="125.2" r="5" fill="white" stroke="#2563eb" stroke-width="2"/>
<circle cx="878.8" cy="125.2" r="5" fill="white" stroke="#2563eb" stroke-width="2"/>
<rect x="957.5" y="179.6" width="10" height="10" fill="#2563eb" stroke="#2563eb"/>
<rect x="1041.2" y="252.5" width="10" height="10" fill="#2563eb" stroke="#2563eb"/>
<rect x="1091.5" y="303.8" width="10" height="10" fill="#2563eb" stroke="#2563eb"/>
<polyline points="795.0,103.6 878.8,117.1 962.5,227.8 1046.2,262.9 1096.5,314.2" fill="none" stroke="#9333ea" stroke-width="2" opacity="0.75"/>
<circle cx="795.0" cy="103.6" r="5" fill="white" stroke="#9333ea" stroke-width="2"/>
<circle cx="878.8" cy="117.1" r="5" fill="white" stroke="#9333ea" stroke-width="2"/>
<rect x="957.5" y="222.8" width="10" height="10" fill="#9333ea" stroke="#9333ea"/>
<rect x="1041.2" y="257.9" width="10" height="10" fill="#9333ea" stroke="#9333ea"/>
<rect x="1091.5" y="309.2" width="10" height="10" fill="#9333ea" stroke="#9333ea"/>
<polyline points="795.0,95.5 878.8,117.1 962.5,203.5 1046.2,268.3 1096.5,314.2" fill="none" stroke="#16a34a" stroke-width="2" opacity="0.75"/>
<circle cx="795.0" cy="95.5" r="5" fill="white" stroke="#16a34a" stroke-width="2"/>
<circle cx="878.8" cy="117.1" r="5" fill="white" stroke="#16a34a" stroke-width="2"/>
<rect x="957.5" y="198.5" width="10" height="10" fill="#16a34a" stroke="#16a34a"/>
<rect x="1041.2" y="263.3" width="10" height="10" fill="#16a34a" stroke="#16a34a"/>
<rect x="1091.5" y="309.2" width="10" height="10" fill="#16a34a" stroke="#16a34a"/>
<line x1="930" y1="360" x2="954" y2="360" stroke="#2563eb" stroke-width="2"/>
<text x="960" y="364" font-family="Arial" font-size="12">GPT</text>
<line x1="930" y1="378" x2="954" y2="378" stroke="#9333ea" stroke-width="2"/>
<text x="960" y="382" font-family="Arial" font-size="12">Haiku</text>
<line x1="930" y1="396" x2="954" y2="396" stroke="#16a34a" stroke-width="2"/>
<text x="960" y="400" font-family="Arial" font-size="12">Gemini</text>
<text x="600" y="410" text-anchor="middle" font-family="Arial" font-size="12">Coordination overhead (%)</text>
<text x="18" y="190" text-anchor="middle" font-family="Arial" font-size="12" transform="rotate(-90 18 190)">Accuracy</text>
</svg>